<svg width="22" height="23" viewBox="0 0 22 23" fill="none" xmlns="http://www.w3.org/2000/svg">
    <path d="M7.35986 21.459V18.0671C7.35986 17.2013 8.06691 16.4994 8.9391 16.4994H12.1274C12.5462 16.4994 12.9479 16.6645 13.2441 16.9585C13.5402 17.2526 13.7066 17.6513 13.7066 18.0671V21.459C13.704 21.819 13.8462 22.1651 14.1016 22.4206C14.3571 22.676 14.7047 22.8197 15.0673 22.8197H17.2425C18.2584 22.8223 19.2336 22.4235 19.9529 21.7113C20.6722 20.9991 21.0764 20.0321 21.0764 19.0236V9.36062C21.0764 8.54596 20.7126 7.77321 20.0832 7.25055L12.6836 1.38376C11.3964 0.355117 9.55217 0.388329 8.30343 1.46265L1.07269 7.25055C0.413475 7.75781 0.0194705 8.53284 0 9.36062V19.0137C0 21.1157 1.71649 22.8197 3.83388 22.8197H5.9594C6.71253 22.8197 7.3246 22.2165 7.33006 21.4689L7.35986 21.459Z"  fill="#AFAFAF"/>
</svg>
