<svg width="25" height="24" viewBox="0 0 25 24" fill="none" xmlns="http://www.w3.org/2000/svg">
    <path d="M11.5 7.99976V12.9998" stroke="#AFAFAF" stroke-width="1.5" stroke-linecap="round" stroke-linejoin="round"/>
    <path d="M16.5 14.9998L11.5 12.9998" stroke="#AFAFAF" stroke-width="1.5" stroke-linecap="round" stroke-linejoin="round"/>
    <path d="M18.5 8.99976H22.5V3.99976" stroke="#AFAFAF" stroke-width="1.5" stroke-linecap="round" stroke-linejoin="round"/>
    <path d="M19.1891 19.0708C17.8218 20.4693 16.0799 21.4218 14.1835 21.8076C12.2871 22.1935 10.3214 21.9954 8.53503 21.2385C6.74866 20.4817 5.22182 19.1999 4.14759 17.5555C3.07337 15.911 2.5 13.9776 2.5 11.9998C2.5 10.0219 3.07337 8.08855 4.14759 6.44406C5.22182 4.79956 6.74866 3.51784 8.53503 2.76096C10.3214 2.00409 12.2871 1.80606 14.1835 2.19191C14.6979 2.29657 15.201 2.44293 15.6883 2.62857C18.312 3.62813 19.963 6.11195 21.5 8.46167V8.46167" stroke="#AFAFAF" stroke-width="1.5" stroke-linecap="round" stroke-linejoin="round"/>
</svg>
